<?xml version="1.0" encoding="utf-8"?>
<!-- Generator: Adobe Illustrator 16.0.0, SVG Export Plug-In . SVG Version: 6.00 Build 0)  -->
<!DOCTYPE svg PUBLIC "-//W3C//DTD SVG 1.1//EN" "http://www.w3.org/Graphics/SVG/1.1/DTD/svg11.dtd">
<svg version="1.1" id="Layer_1" xmlns="http://www.w3.org/2000/svg" xmlns:xlink="http://www.w3.org/1999/xlink" x="0px" y="0px"
	 width="1224px" height="151.2px" viewBox="0 320.4 1224 151.2" enable-background="new 0 320.4 1224 151.2" xml:space="preserve">
<g>
	<g transform="matrix( 1, 0, 0, 1, 0,0) ">
		<g>
			<g id="Layer1_0_FILL_5_">
				<path fill="#FFFFFF" d="M1209.274,325.795v-0.979h-735.98v72.743h664.241L1209.274,325.795 M929.383,339.146h6.258v42.985
					h-5.623l-10.294-27.042c0.277,1.319,0.416,2.354,0.416,3.104v23.938h-6.261v-42.985h5.625l10.292,26.504
					c-0.274-1.32-0.413-2.354-0.413-3.104V339.146 M980.729,339.146h16.821c2.624,0,3.938,1.321,3.938,3.961v19.438
					c0,2.674-1.313,4.011-3.938,4.011h-10.416v15.575h-6.405V339.146 M961.12,339.096h6.746l8.267,43.035h-6.356l-1.296-8.167
					h-8.045l-1.296,8.167h-6.333v-0.1L961.12,339.096 M1023.838,339.146c2.624,0,3.937,1.321,3.937,3.961v19.438
					c0,2.674-1.313,4.011-3.937,4.011h-10.417v15.575h-6.408v-42.985H1023.838 M1059.658,339.146h17.041
					c2.577,0,3.863,1.321,3.863,3.961v15.623c0,1.809-0.609,2.984-1.834,3.521c-0.65,0.277-2.047,0.416-4.181,0.416l7.091,19.465
					h-6.699l-7.091-19.952v-3.889h6.33v-13.618h-8.116v37.459h-6.404V339.146 M1040.049,339.096h6.746l8.267,43.035h-6.357
					l-1.295-8.167h-8.046l-1.295,8.167h-6.333v-0.1L1040.049,339.096 M1109.757,339.146h6.408v37.238h10.463v5.747h-16.871V339.146
					 M1086.555,339.146h17.654v5.697h-11.249v12.542h9.683v5.575h-9.683v13.497h11.395v5.674h-17.8V339.146 M605.794,339.146h17.044
					c2.575,0,3.862,1.321,3.862,3.961v15.623c0,1.809-0.611,2.984-1.833,3.521c-0.652,0.277-2.046,0.416-4.183,0.416l7.092,19.465
					h-6.7l-7.09-19.952v-3.889h6.333v-13.618H612.2v37.459h-6.407L605.794,339.146 M632.691,343.106
					c0-2.641,1.271-3.961,3.813-3.961h13.4c2.606,0,3.911,1.321,3.911,3.961v10.049h-6.383v-8.483h-8.337v31.933h8.337v-9.022h6.383
					v10.612c0,2.625-1.305,3.938-3.911,3.938h-13.4c-2.542,0-3.813-1.313-3.813-3.938V343.106 M657.998,339.414
					c-0.018-0.033-0.018-0.122,0-0.27h6.626l5.135,18.68l5.111-18.68h6.577c0,0.13,0,0.219,0,0.27l-5.673,17.946
					c-0.701,1.776-1.646,4.767-2.837,8.973v15.796h-6.455v-15.796c-0.293-1.418-0.709-2.925-1.247-4.521
					c-0.979-2.724-1.499-4.207-1.564-4.451L657.998,339.414 M685.751,343.106c0-2.641,1.271-3.961,3.814-3.961h13.397
					c2.608,0,3.912,1.321,3.912,3.961v10.049h-6.382v-8.483h-8.338v31.933h8.338v-9.022h6.382v10.612
					c0,2.625-1.304,3.938-3.912,3.938h-13.397c-2.544,0-3.814-1.313-3.814-3.938V343.106 M712.915,339.146h6.407v37.238h10.465
					v5.747h-16.872V339.146 M734.604,339.146h17.654v5.697h-11.247v12.542h9.684v5.575h-9.684v13.497h11.395v5.674h-17.802V339.146
					 M770.376,339.146h17.531v5.697h-11.125v12.714h9.511v5.576h-9.511v18.998h-6.406V339.146 M818.789,343.106
					c0-2.641,1.287-3.961,3.863-3.961h12.935c2.608,0,3.912,1.304,3.912,3.912v9.608h-6.431v-8.093h-7.85v7.752l12.885,12.151
					c0.931,0.881,1.396,2.046,1.396,3.497v10.221c0,2.625-1.304,3.938-3.912,3.938h-12.935c-2.576,0-3.863-1.313-3.863-3.938
					v-10.221h6.431v8.753h7.85v-8.437l-12.886-12.201c-0.93-0.896-1.395-2.038-1.395-3.424V343.106 M799.302,339.096h6.748
					l8.265,43.035h-6.356l-1.296-8.167h-8.044l-1.296,8.167h-6.333v-0.1L799.302,339.096 M845.588,339.146h6.406v17.726h8.705
					v-17.726h6.479v42.985h-6.479v-19.268h-8.705v19.268h-6.406V339.146 M873.39,339.146h6.431v42.985h-6.431V339.146
					 M886.078,343.106c0-2.641,1.271-3.961,3.813-3.961h13.939c2.607,0,3.911,1.321,3.911,3.961v35.087
					c0,2.625-1.304,3.938-3.911,3.938h-13.939c-2.541,0-3.813-1.313-3.813-3.938V343.106 M495.227,339.146h6.064l6.749,23.765
					c0.081,0.262,0.137,0.914,0.171,1.957c0-0.457,0.057-1.107,0.17-1.957l6.749-23.765h6.064v42.985h-6.187v-21.199
					c0-1.108,0.13-2.666,0.392-4.67l-5.552,21.933h-3.251l-5.575-21.933c0.243,2.036,0.365,3.594,0.365,4.67v21.199h-6.16V339.146
					 M527.307,343.106c0-2.641,1.271-3.961,3.814-3.961h13.938c2.608,0,3.912,1.321,3.912,3.961v35.087
					c0,2.625-1.304,3.938-3.912,3.938h-13.938c-2.542,0-3.814-1.313-3.814-3.938V343.106 M577.993,343.106
					c0-2.641,1.271-3.961,3.814-3.961h13.938c2.607,0,3.913,1.321,3.913,3.961v35.087c0,2.625-1.305,3.938-3.913,3.938h-13.938
					c-2.543,0-3.814-1.313-3.814-3.938V343.106 M553.2,339.146h20.563v5.697h-7.092v37.288h-6.381v-37.288H553.2V339.146
					 M593.227,344.671H584.4v31.933h8.826V344.671 M542.54,344.671h-8.827v31.933h8.827V344.671 M901.313,344.671h-8.826v31.933
					h8.826V344.671 M802.627,349.071l-3.154,19.39h6.284L802.627,349.071 M1046.504,368.461l-3.132-19.389l-3.154,19.389H1046.504
					 M1021.294,361.053v-16.382h-7.873v16.382H1021.294 M967.575,368.461l-3.129-19.389l-3.157,19.389H967.575 M995.007,361.053
					v-16.382h-7.872v16.382H995.007z"/>
			</g>
		</g>
	</g>
	<g transform="matrix( 1, 0, 0, 1, -355.1,-509.85) ">
		<g>
			<g id="Layer0_0_MEMBER_0_FILL_3_">
				<path fill="#FFFFFF" d="M1166.433,951.283v-0.934c0-1.991,1.503-2.987,4.511-2.987h13.577c1.603,0,2.761,0.162,3.479,0.488
					c1.145,0.459,1.718,1.356,1.718,2.696v1.078h3.479v-1.52c0-3.759-3.071-5.639-9.217-5.639h-12.793
					c-2.321,0-4.167,0.394-5.54,1.177c-1.895,0.98-2.842,2.533-2.842,4.656v1.029c0,2.027,0.751,3.497,2.254,4.412
					c1.079,0.719,3.105,1.128,6.079,1.227l13.921,0.244c3.104,0.064,4.658,1.161,4.658,3.285v0.932c0,2.06-1.749,3.088-5.246,3.088
					h-13.088c-1.568,0-2.713-0.162-3.433-0.489c-1.014-0.491-1.52-1.405-1.52-2.745v-1.274h-3.627v1.716
					c0,3.758,2.694,5.638,8.087,5.638h13.628c5.752,0,8.628-1.88,8.628-5.638v-1.226c0-3.955-2.763-6.014-8.284-6.178l-13.873-0.195
					C1167.953,954.092,1166.433,953.145,1166.433,951.283 M1202.61,944.468h-3.432v22.894h3.432V944.468 M1202.61,938.684v-3.383
					h-3.432v3.383H1202.61 M1236.187,975.4c1.929-1.178,2.895-3.316,2.895-6.423v-24.51h-3.433v2.501
					c-0.719-0.851-1.406-1.438-2.059-1.766c-1.112-0.49-2.696-0.735-4.757-0.735h-10.099c-6.567,0-9.853,3.023-9.853,9.069v5.244
					c0,5.719,3.415,8.579,10.247,8.579h9.803c3.759,0,5.997-0.899,6.716-2.696v4.217c0,3.527-2.321,5.293-6.963,5.293h-9.018
					c-1.505,0-2.714-0.18-3.628-0.539c-1.472-0.489-2.205-1.373-2.205-2.646h-3.774c0,2.091,1.062,3.692,3.187,4.805
					c1.668,0.851,3.66,1.274,5.979,1.274h9.656C1232.118,977.067,1234.553,976.51,1236.187,975.4 M1212.365,953.832
					c0-2.584,0.72-4.348,2.157-5.295c1.274-0.916,3.186-1.373,5.734-1.373h8.039c4.9,0,7.354,2.271,7.354,6.814v4.461
					c0,2.092-0.719,3.676-2.158,4.754c-1.373,0.883-3.104,1.324-5.194,1.324h-8.039c-5.262,0-7.892-2.027-7.892-6.078
					L1212.365,953.832 M1249.716,948.88c1.274-1.046,2.942-1.568,5.001-1.568h9.216c2.125,0,3.742,0.522,4.852,1.568
					c1.406,1.046,2.108,2.599,2.108,4.657v13.823h3.531v-13.284c0-3.17-0.966-5.621-2.895-7.354
					c-1.765-1.504-4.297-2.255-7.598-2.255h-9.118c-3.563,0-5.931,1.243-7.107,3.727v-3.727h-3.48v22.894h3.48v-13.823
					C1247.707,951.477,1248.376,949.926,1249.716,948.88 M999.078,950.301v1.029c0,2.027,0.735,3.497,2.206,4.412
					c1.11,0.719,3.153,1.128,6.128,1.227l13.922,0.244c3.04,0.064,4.559,1.161,4.559,3.285v0.932c0,2.06-1.747,3.088-5.245,3.088
					h-13.038c-1.568,0-2.695-0.162-3.383-0.489c-1.079-0.491-1.617-1.405-1.617-2.745v-1.274h-3.53v1.716
					c0,3.758,2.696,5.638,8.089,5.638h13.578c5.72,0,8.578-1.88,8.578-5.638v-1.226c0-3.955-2.729-6.014-8.186-6.178l-13.922-0.195
					c-3.072-0.033-4.607-0.979-4.607-2.843v-0.934c0-1.991,1.535-2.987,4.607-2.987h13.528c1.667,0,2.826,0.162,3.479,0.489
					c1.112,0.458,1.667,1.355,1.667,2.695v1.078h3.53v-1.52c0-3.759-3.039-5.639-9.118-5.639h-12.842c-2.354,0-4.2,0.394-5.54,1.178
					C1000.027,946.593,999.078,948.145,999.078,950.301 M1037.511,951.283v-0.934c0-1.991,1.52-2.987,4.559-2.987h13.53
					c1.634,0,2.811,0.162,3.528,0.488c1.11,0.459,1.668,1.356,1.668,2.696v1.078h3.479v-1.52c0-3.759-3.072-5.639-9.215-5.639
					h-12.697c-2.352,0-4.23,0.394-5.637,1.177c-1.862,0.98-2.795,2.533-2.795,4.656v1.029c0,1.995,0.752,3.465,2.256,4.412
					c1.11,0.719,3.12,1.128,6.029,1.227l13.971,0.244c3.071,0.064,4.608,1.161,4.608,3.285v0.932c0,2.06-1.749,3.088-5.246,3.088
					h-13.088c-1.537,0-2.647-0.162-3.334-0.489c-1.078-0.491-1.617-1.405-1.617-2.745v-1.274h-3.579v1.716
					c0,3.758,2.713,5.638,8.138,5.638h13.53c5.751,0,8.627-1.88,8.627-5.638v-1.226c0-3.955-2.729-6.014-8.187-6.178l-13.923-0.195
					C1039.047,954.092,1037.511,953.145,1037.511,951.283 M1131.482,958.34v-2.598h26.863v-3.332c0-2.582-1.079-4.607-3.236-6.08
					c-1.861-1.24-4.198-1.862-7.01-1.862h-10.097c-2.844,0-5.197,0.751-7.062,2.255c-2.058,1.636-3.087,3.855-3.087,6.668v5.392
					c0,5.719,3.397,8.579,10.195,8.579h11.813c2.419,0,4.38-0.54,5.882-1.617c1.732-1.21,2.601-2.958,2.601-5.245v-0.49h-3.53v0.49
					c0,1.373-0.588,2.437-1.764,3.187c-0.949,0.556-2.175,0.834-3.678,0.834H1138
					C1133.655,964.518,1131.482,962.459,1131.482,958.34 M1131.482,952.95c0-1.732,0.539-3.089,1.617-4.069
					c1.178-1.013,2.647-1.519,4.412-1.519h10.882c1.863,0,3.366,0.44,4.511,1.322c1.273,1.077,1.911,2.5,1.911,4.266H1131.482
					 M1123.1,935.301h-3.53v11.668c-0.588-0.883-1.226-1.471-1.911-1.766c-0.979-0.49-2.631-0.735-4.951-0.735h-9.411
					c-3.171,0-5.62,0.721-7.354,2.157c-1.895,1.536-2.844,3.824-2.844,6.862v4.952c0,5.946,3.399,8.921,10.196,8.921h9.412
					c1.731,0,2.974-0.114,3.726-0.343c1.34-0.263,2.386-0.916,3.137-1.961v2.304h3.53V935.301 M1117.461,948.684
					c1.504,1.111,2.256,2.714,2.256,4.805v4.952c0,1.991-0.77,3.545-2.304,4.655c-1.341,0.948-3.057,1.423-5.147,1.423h-7.745
					c-5.261,0-7.892-2.027-7.892-6.078v-4.952c0-4.085,2.631-6.126,7.892-6.126h7.745
					C1114.522,947.362,1116.253,947.803,1117.461,948.684 M927.069,951.625v-1.52c0-3.759-3.07-5.639-9.215-5.639h-12.843
					c-1.47,0-2.745,0.163-3.823,0.491c-0.655,0.164-1.226,0.391-1.716,0.687c-1.831,0.947-2.745,2.5-2.745,4.655v1.029
					c0,2.027,0.735,3.497,2.205,4.412c0.556,0.393,1.307,0.67,2.255,0.834c1.013,0.229,2.271,0.358,3.774,0.393l13.921,0.244
					c3.071,0.064,4.606,1.161,4.606,3.285v0.932c0,2.06-1.714,3.088-5.146,3.088h-13.089c-1.602,0-2.745-0.163-3.432-0.489
					c-0.229-0.1-0.44-0.229-0.637-0.394c-0.655-0.522-0.98-1.307-0.98-2.353v-1.274h-3.479v1.716c0,2.811,1.487,4.574,4.46,5.294
					c1.013,0.229,2.188,0.344,3.528,0.344h13.677c5.686,0,8.529-1.88,8.529-5.638v-1.226c0-3.955-2.711-6.014-8.137-6.178
					l-13.922-0.195c-1.699-0.033-2.924-0.326-3.676-0.882c-0.655-0.458-0.98-1.11-0.98-1.961v-0.934c0-0.914,0.326-1.616,0.98-2.105
					c0.752-0.588,1.977-0.882,3.676-0.882h13.481c1.634,0,2.793,0.161,3.479,0.488c1.111,0.458,1.666,1.356,1.666,2.696v1.078h3.58
					 M993.198,944.468h-3.383v22.894h3.383V944.468 M970.599,963.734l-10.833-19.267h-4.118l-10.784,19.267h-0.785l-10.832-19.267
					h-3.824l12.842,22.894h4.51l10.932-19.559l10.931,19.559h4.657l12.794-22.894h-3.921l-10.784,19.267H970.599 M993.198,935.301
					h-3.383v3.383h3.383V935.301 M828.394,943.636v25.538c0,7.518,3.757,11.275,11.273,11.275h25.54
					c7.517,0,11.273-3.759,11.273-11.275v-25.538c0-7.518-3.757-11.273-11.273-11.273h-25.54
					C832.151,932.362,828.394,936.119,828.394,943.636 M830.845,967.852v-22.943c0-6.764,3.381-10.146,10.146-10.146h22.989
					c6.766,0,10.147,3.383,10.147,10.146v22.943c0,6.764-3.384,10.146-10.147,10.146h-22.989
					C834.226,977.997,830.845,974.616,830.845,967.852 M836.874,952.116v9.559h10.637v10.64h9.656v-10.64h10.638v-9.559h-10.638
					v-10.637h-9.656v10.637H836.874L836.874,952.116z"/>
			</g>
		</g>
	</g>
	<path fill="#FFFFFF" d="M82.511,371.914v97.598H19.38v-97.577c7.728,8.741,19.009,14.274,31.56,14.274
		C63.503,386.211,74.786,380.672,82.511,371.914z M50.94,371.438c17.433,0,31.561-14.157,31.561-31.607v-15.132H19.38v15.132
		C19.38,357.28,33.504,371.438,50.94,371.438z M399.168,399.959c-0.025-0.006-36.695-18.886-36.715-18.892
		c-16.138-8.417-21.411-14.709-21.411-28.072c0-10.898,7.839-23.294,28.418-23.294h28.97v3.021h-2.383
		c-16.313,0-27.79,11.517-27.79,26.651c0,15.139,13.215,26.428,29.538,26.428h24.959v-61.099l0.018-0.003h-0.018H312.026
		c-26.219,0-42.133,14.018-43.193,31.103c-1.066,17.274,8.444,29.92,25.614,38.447c0,0,36.85,18.894,36.873,18.903
		c16.138,8.405,21.417,14.704,21.417,28.063c0,10.904-7.845,23.301-28.428,23.301h-28.965v-3.022h2.381
		c16.314,0,27.792-11.518,27.792-26.654c0-15.14-13.222-26.421-29.542-26.421h-24.958v61.093L271,469.512h0.017H381.59
		c26.225,0,42.139-14.013,43.191-31.101C425.852,421.135,416.338,408.488,399.168,399.959z M179.453,356.768v0.007l0,0
		c-12.797-21.982-38.587-32.077-61.91-32.077H98.376v61.104h21.223c15.826,0,27.063,6.783,35.267,13.389
		c8.087,7.165,11.432,17.872,11.432,28.804c0,2.685-0.281,5.306-0.804,7.822c-3.344,17.678-17.518,28.492-35.451,28.695h-7.338
		v-3.02h0.419c16.31,0,27.791-11.518,27.791-26.655c0-15.139-13.221-26.421-29.54-26.421H98.376v61.098l0,0h0.011h33.326
		c20.225,0,37.592-13.711,42.372-32.065v-0.007c12.798,21.984,38.583,32.072,61.898,32.072h19.171v-61.101h-21.225
		c-15.823,0-27.062-6.781-35.259-13.394c-8.089-7.156-11.428-17.873-11.428-28.801c0-2.681,0.277-5.302,0.798-7.823
		c3.343-17.679,17.518-28.49,35.447-28.693h7.337v3.021h-0.42c-16.304,0-27.782,11.517-27.782,26.651
		c0,15.136,13.218,26.428,29.537,26.428h22.995v-61.104h-33.333C201.605,324.696,184.223,338.412,179.453,356.768z"/>
</g>
</svg>
